<svg width="13" height="12" viewBox="0 0 13 12" fill="none" xmlns="http://www.w3.org/2000/svg">
<path d="M10.4713 2.83979C10.6201 2.83979 10.7419 2.96158 10.7419 3.11044V3.65174H2.62238V3.11044C2.62238 2.96158 2.74417 2.83979 2.89303 2.83979H10.4713ZM10.7419 5.27565V8.52346C10.7419 8.67232 10.6201 8.79411 10.4713 8.79411H2.89303C2.74417 8.79411 2.62238 8.67232 2.62238 8.52346V5.27565H10.7419ZM2.89303 2.02783C2.29591 2.02783 1.81042 2.51331 1.81042 3.11044V8.52346C1.81042 9.12059 2.29591 9.60607 2.89303 9.60607H10.4713C11.0684 9.60607 11.5539 9.12059 11.5539 8.52346V3.11044C11.5539 2.51331 11.0684 2.02783 10.4713 2.02783H2.89303ZM3.84031 7.17021C3.61533 7.17021 3.43433 7.3512 3.43433 7.57618C3.43433 7.80116 3.61533 7.98216 3.84031 7.98216H4.65226C4.87724 7.98216 5.05824 7.80116 5.05824 7.57618C5.05824 7.3512 4.87724 7.17021 4.65226 7.17021H3.84031ZM6.00552 7.17021C5.78054 7.17021 5.59954 7.3512 5.59954 7.57618C5.59954 7.80116 5.78054 7.98216 6.00552 7.98216H7.90008C8.12506 7.98216 8.30606 7.80116 8.30606 7.57618C8.30606 7.3512 8.12506 7.17021 7.90008 7.17021H6.00552Z" fill="black"/>
</svg>
