<svg width="74" height="17" viewBox="0 0 74 17" fill="none" xmlns="http://www.w3.org/2000/svg">
<path d="M62.5493 16.0148V0.635742H68.0311C69.2276 0.635742 70.2188 0.853512 71.0048 1.28905C71.7908 1.72459 72.379 2.32033 72.7695 3.07627C73.16 3.82721 73.3552 4.67325 73.3552 5.61442C73.3552 6.5606 73.1575 7.41165 72.762 8.16759C72.3715 8.91853 71.7808 9.51427 70.9898 9.95481C70.2038 10.3904 69.2151 10.6081 68.0236 10.6081H64.2539V8.64068H67.8134C68.5693 8.64068 69.1826 8.51052 69.6531 8.2502C70.1237 7.98487 70.4692 7.62442 70.6894 7.16885C70.9097 6.71329 71.0198 6.19514 71.0198 5.61442C71.0198 5.0337 70.9097 4.51806 70.6894 4.0675C70.4692 3.61694 70.1212 3.264 69.6456 3.00869C69.175 2.75337 68.5543 2.62571 67.7833 2.62571H64.8697V16.0148H62.5493Z" fill="url(#paint0_linear_48_61)"/>
<path d="M56.8475 0.635742H59.1754V10.7508C59.1754 11.8271 58.9226 12.7808 58.417 13.6119C57.9114 14.4379 57.2005 15.0887 56.2843 15.5643C55.3682 16.0349 54.2944 16.2702 53.0628 16.2702C51.8363 16.2702 50.765 16.0349 49.8489 15.5643C48.9327 15.0887 48.2218 14.4379 47.7162 13.6119C47.2106 12.7808 46.9578 11.8271 46.9578 10.7508V0.635742H49.2781V10.5631C49.2781 11.2589 49.4308 11.8772 49.7362 12.4179C50.0466 12.9585 50.4846 13.3841 51.0503 13.6945C51.6161 13.9998 52.2869 14.1525 53.0628 14.1525C53.8438 14.1525 54.5171 13.9998 55.0829 13.6945C55.6536 13.3841 56.0891 12.9585 56.3895 12.4179C56.6949 11.8772 56.8475 11.2589 56.8475 10.5631V0.635742Z" fill="url(#paint1_linear_48_61)"/>
<path d="M44.0652 8.3251C44.0652 9.96714 43.7648 11.3789 43.164 12.5604C42.5633 13.7368 41.7398 14.6429 40.6935 15.2787C39.6522 15.9095 38.4682 16.2249 37.1416 16.2249C35.8099 16.2249 34.6209 15.9095 33.5746 15.2787C32.5333 14.6429 31.7123 13.7343 31.1116 12.5528C30.5108 11.3714 30.2104 9.96213 30.2104 8.3251C30.2104 6.68306 30.5108 5.27381 31.1116 4.09735C31.7123 2.91589 32.5333 2.00976 33.5746 1.37898C34.6209 0.743188 35.8099 0.425293 37.1416 0.425293C38.4682 0.425293 39.6522 0.743188 40.6935 1.37898C41.7398 2.00976 42.5633 2.91589 43.164 4.09735C43.7648 5.27381 44.0652 6.68306 44.0652 8.3251ZM41.7673 8.3251C41.7673 7.07355 41.5645 6.01974 41.159 5.16368C40.7585 4.30261 40.2079 3.6518 39.507 3.21125C38.8111 2.7657 38.0226 2.54292 37.1416 2.54292C36.2555 2.54292 35.4645 2.7657 34.7686 3.21125C34.0727 3.6518 33.5221 4.30261 33.1166 5.16368C32.7161 6.01974 32.5158 7.07355 32.5158 8.3251C32.5158 9.57666 32.7161 10.633 33.1166 11.494C33.5221 12.3501 34.0727 13.0009 34.7686 13.4465C35.4645 13.887 36.2555 14.1073 37.1416 14.1073C38.0226 14.1073 38.8111 13.887 39.507 13.4465C40.2079 13.0009 40.7585 12.3501 41.159 11.494C41.5645 10.633 41.7673 9.57666 41.7673 8.3251Z" fill="url(#paint2_linear_48_61)"/>
<path d="M17.0764 16.0148V0.635742H22.5582C23.7497 0.635742 24.7384 0.840997 25.5244 1.25151C26.3154 1.66202 26.9061 2.23022 27.2966 2.95612C27.6871 3.67702 27.8823 4.51055 27.8823 5.45673C27.8823 6.3979 27.6846 7.22642 27.2891 7.94231C26.8986 8.6532 26.3079 9.20638 25.5169 9.60187C24.7309 9.99737 23.7422 10.1951 22.5507 10.1951H18.3981V8.19763H22.3405C23.0914 8.19763 23.7021 8.09 24.1727 7.87473C24.6483 7.65946 24.9962 7.34657 25.2165 6.93606C25.4368 6.52556 25.5469 6.03244 25.5469 5.45673C25.5469 4.87601 25.4343 4.37288 25.209 3.94735C24.9887 3.52183 24.6408 3.19642 24.1652 2.97114C23.6946 2.74086 23.0764 2.62571 22.3104 2.62571H19.3968V16.0148H17.0764ZM24.6683 9.07622L28.4681 16.0148H25.8248L22.1002 9.07622H24.6683Z" fill="url(#paint3_linear_48_61)"/>
<path d="M11.6452 5.49409C11.5001 5.03852 11.3048 4.63051 11.0595 4.27007C10.8192 3.90461 10.5314 3.59423 10.1959 3.33891C9.86052 3.07859 9.47754 2.88084 9.04701 2.74567C8.62148 2.61051 8.1534 2.54292 7.64277 2.54292C6.77669 2.54292 5.99572 2.7657 5.29986 3.21125C4.60399 3.65681 4.05331 4.31012 3.64781 5.17119C3.24731 6.02725 3.04706 7.07605 3.04706 8.31759C3.04706 9.56414 3.24981 10.6179 3.65532 11.479C4.06082 12.3401 4.61651 12.9934 5.32239 13.4389C6.02826 13.8845 6.83176 14.1073 7.73288 14.1073C8.56892 14.1073 9.29732 13.9371 9.91809 13.5966C10.5439 13.2562 11.027 12.7756 11.3674 12.1549C11.7128 11.5291 11.8855 10.7932 11.8855 9.94711L12.4863 10.0598H8.08582V8.14488H14.1308V9.89455C14.1308 11.1862 13.8555 12.3075 13.3048 13.2587C12.7591 14.2049 12.0032 14.9358 11.037 15.4515C10.0758 15.9671 8.97442 16.2249 7.73288 16.2249C6.34115 16.2249 5.11963 15.9045 4.06833 15.2637C3.02203 14.6229 2.20602 13.7143 1.62029 12.5378C1.03456 11.3564 0.741699 9.95462 0.741699 8.33261C0.741699 7.10609 0.911911 6.00472 1.25233 5.02851C1.59276 4.0523 2.07085 3.22377 2.68661 2.54292C3.30738 1.85707 4.03579 1.33392 4.87183 0.973474C5.71287 0.60802 6.63151 0.425293 7.62775 0.425293C8.45878 0.425293 9.23224 0.547945 9.94813 0.79325C10.669 1.03855 11.3098 1.38649 11.8705 1.83705C12.4362 2.28761 12.9043 2.82327 13.2748 3.44404C13.6452 4.05981 13.8955 4.74316 14.0257 5.49409H11.6452Z" fill="url(#paint4_linear_48_61)"/>
<defs>
<linearGradient id="paint0_linear_48_61" x1="48.5688" y1="-7.80247" x2="48.5688" y2="32.5677" gradientUnits="userSpaceOnUse">
<stop stop-color="#828282"/>
<stop offset="1" stop-color="#1C1C1C"/>
</linearGradient>
<linearGradient id="paint1_linear_48_61" x1="48.5685" y1="-7.80247" x2="48.5685" y2="32.5677" gradientUnits="userSpaceOnUse">
<stop stop-color="#828282"/>
<stop offset="1" stop-color="#1C1C1C"/>
</linearGradient>
<linearGradient id="paint2_linear_48_61" x1="48.5689" y1="-7.80266" x2="48.5689" y2="32.5675" gradientUnits="userSpaceOnUse">
<stop stop-color="#828282"/>
<stop offset="1" stop-color="#1C1C1C"/>
</linearGradient>
<linearGradient id="paint3_linear_48_61" x1="48.5686" y1="-7.80247" x2="48.5686" y2="32.5677" gradientUnits="userSpaceOnUse">
<stop stop-color="#828282"/>
<stop offset="1" stop-color="#1C1C1C"/>
</linearGradient>
<linearGradient id="paint4_linear_48_61" x1="48.5685" y1="-7.80266" x2="48.5685" y2="32.5675" gradientUnits="userSpaceOnUse">
<stop stop-color="#828282"/>
<stop offset="1" stop-color="#1C1C1C"/>
</linearGradient>
</defs>
</svg>
