<svg width="42" height="43" viewBox="0 0 42 43" fill="none" xmlns="http://www.w3.org/2000/svg">
<path d="M13.4488 2.89141C12.8302 1.39697 11.1991 0.601548 9.64043 1.02738L2.56998 2.95569C1.17196 3.34135 0.199768 4.61082 0.199768 6.05705C0.199768 25.9347 16.3172 42.0521 36.1948 42.0521C37.641 42.0521 38.9105 41.0799 39.2962 39.6819L41.2245 32.6114C41.6503 31.0527 40.8549 29.4217 39.3604 28.803L31.6472 25.5892C30.3376 25.0428 28.819 25.4204 27.9272 26.5212L24.6812 30.4822C19.0248 27.8067 14.4451 23.227 11.7696 17.5706L15.7307 14.3327C16.8314 13.4328 17.209 11.9223 16.6627 10.6127L13.4488 2.89945V2.89141Z" fill="black"/>
</svg>
