<svg width="25" height="24" viewBox="0 0 25 24" fill="none" xmlns="http://www.w3.org/2000/svg">
<path fill-rule="evenodd" clip-rule="evenodd" d="M11.5624 3.99026C7.84639 3.99026 4.83401 7.00264 4.83401 10.7186C4.83401 14.4346 7.84639 17.447 11.5624 17.447C15.2783 17.447 18.2907 14.4346 18.2907 10.7186C18.2907 7.00264 15.2783 3.99026 11.5624 3.99026ZM2.91162 10.7186C2.91162 5.94094 6.78469 2.06787 11.5624 2.06787C16.34 2.06787 20.2131 5.94094 20.2131 10.7186C20.2131 15.4963 16.34 19.3694 11.5624 19.3694C6.78469 19.3694 2.91162 15.4963 2.91162 10.7186Z" fill="black"/>
<path fill-rule="evenodd" clip-rule="evenodd" d="M16.3134 15.4695C16.6888 15.0941 17.2974 15.0941 17.6727 15.4695L21.8539 19.6507C22.2293 20.0261 22.2293 20.6347 21.8539 21.01C21.4785 21.3854 20.8699 21.3854 20.4946 21.01L16.3134 16.8288C15.938 16.4535 15.938 15.8449 16.3134 15.4695Z" fill="black"/>
</svg>
