<svg width="87" height="22" viewBox="0 0 87 22" fill="none" xmlns="http://www.w3.org/2000/svg">
<path d="M86.1681 10.6368H83.8252C83.7351 10.1361 83.5674 9.6956 83.3221 9.31512C83.0768 8.93465 82.7764 8.61175 82.421 8.34642C82.0655 8.08109 81.6676 7.88084 81.227 7.74567C80.7915 7.61051 80.3284 7.54292 79.8378 7.54292C78.9517 7.54292 78.1582 7.7657 77.4573 8.21125C76.7615 8.65681 76.2108 9.31012 75.8053 10.1712C75.4048 11.0323 75.2045 12.0836 75.2045 13.3251C75.2045 14.5767 75.4048 15.633 75.8053 16.494C76.2108 17.3551 76.764 18.0059 77.4648 18.4465C78.1657 18.887 78.9542 19.1073 79.8303 19.1073C80.3159 19.1073 80.7765 19.0422 81.212 18.912C81.6525 18.7769 82.0505 18.5791 82.406 18.3188C82.7614 18.0585 83.0618 17.7406 83.3071 17.3651C83.5574 16.9846 83.7301 16.5491 83.8252 16.0585L86.1681 16.066C86.043 16.8219 85.8002 17.5178 85.4397 18.1536C85.0843 18.7844 84.6262 19.3301 84.0655 19.7906C83.5098 20.2462 82.8741 20.5991 82.1582 20.8494C81.4423 21.0998 80.6613 21.2249 79.8153 21.2249C78.4836 21.2249 77.2971 20.9095 76.2558 20.2787C75.2145 19.6429 74.3935 18.7343 73.7928 17.5528C73.197 16.3714 72.8992 14.9621 72.8992 13.3251C72.8992 11.6831 73.1995 10.2738 73.8003 9.09735C74.401 7.91589 75.2221 7.00976 76.2633 6.37898C77.3046 5.74319 78.4886 5.42529 79.8153 5.42529C80.6313 5.42529 81.3922 5.54294 82.0981 5.77823C82.809 6.00852 83.4473 6.34894 84.013 6.7995C84.5787 7.24505 85.0468 7.79073 85.4172 8.43653C85.7877 9.07733 86.038 9.81074 86.1681 10.6368Z" fill="url(#paint0_linear_48_44)"/>
<path d="M69.5726 4.83248H71.4274C71.4274 5.82871 71.2822 6.66976 70.9919 7.35561C70.7065 8.04146 70.2359 8.56461 69.5801 8.92506C68.9293 9.2805 68.0557 9.45822 66.9594 9.45822V7.9113C67.6803 7.9113 68.2284 7.79365 68.6039 7.55836C68.9844 7.31806 69.2397 6.97013 69.3698 6.51457C69.505 6.05399 69.5726 5.4933 69.5726 4.83248ZM65.6077 5.63598H67.9356V15.751C67.9356 16.8274 67.6828 17.7811 67.1771 18.6121C66.6715 19.4381 65.9606 20.0889 65.0445 20.5645C64.1283 21.0351 63.0545 21.2704 61.823 21.2704C60.5965 21.2704 59.5251 21.0351 58.609 20.5645C57.6928 20.0889 56.982 19.4381 56.4763 18.6121C55.9707 17.7811 55.7179 16.8274 55.7179 15.751V5.63598H58.0383V15.5633C58.0383 16.2592 58.191 16.8774 58.4963 17.4181C58.8067 17.9588 59.2448 18.3843 59.8105 18.6947C60.3762 19.0001 61.047 19.1528 61.823 19.1528C62.6039 19.1528 63.2773 19.0001 63.843 18.6947C64.4137 18.3843 64.8492 17.9588 65.1496 17.4181C65.455 16.8774 65.6077 16.2592 65.6077 15.5633V5.63598ZM60.8993 4.09656L62.6565 0.634766H65.0219L62.6941 4.09656H60.8993Z" fill="url(#paint1_linear_48_44)"/>
<path d="M41.1854 7.63322V5.63574H53.0877V7.63322H48.2892V21.0148H45.9764V7.63322H41.1854Z" fill="url(#paint2_linear_48_44)"/>
<path d="M32.9627 5.63574V21.0148H30.8301L23.0129 9.73583H22.8702V21.0148H20.5498V5.63574H22.6975L30.5222 16.9298H30.6649V5.63574H32.9627Z" fill="url(#paint3_linear_48_44)"/>
<path d="M17.1707 5.63574V21.0148H14.8503V5.63574H17.1707Z" fill="url(#paint4_linear_48_44)"/>
<path d="M0.317871 7.63322V5.63574H12.2201V7.63322H7.42169V21.0148H5.10882V7.63322H0.317871Z" fill="url(#paint5_linear_48_44)"/>
<defs>
<linearGradient id="paint0_linear_48_44" x1="54.6552" y1="-2.80266" x2="54.6552" y2="37.5675" gradientUnits="userSpaceOnUse">
<stop stop-color="#828282"/>
<stop offset="1" stop-color="#1C1C1C"/>
</linearGradient>
<linearGradient id="paint1_linear_48_44" x1="54.6553" y1="-2.80224" x2="54.6553" y2="37.5679" gradientUnits="userSpaceOnUse">
<stop stop-color="#828282"/>
<stop offset="1" stop-color="#1C1C1C"/>
</linearGradient>
<linearGradient id="paint2_linear_48_44" x1="54.6553" y1="-2.80247" x2="54.6553" y2="37.5677" gradientUnits="userSpaceOnUse">
<stop stop-color="#828282"/>
<stop offset="1" stop-color="#1C1C1C"/>
</linearGradient>
<linearGradient id="paint3_linear_48_44" x1="54.6553" y1="-2.80247" x2="54.6553" y2="37.5677" gradientUnits="userSpaceOnUse">
<stop stop-color="#828282"/>
<stop offset="1" stop-color="#1C1C1C"/>
</linearGradient>
<linearGradient id="paint4_linear_48_44" x1="54.6554" y1="-2.80247" x2="54.6554" y2="37.5677" gradientUnits="userSpaceOnUse">
<stop stop-color="#828282"/>
<stop offset="1" stop-color="#1C1C1C"/>
</linearGradient>
<linearGradient id="paint5_linear_48_44" x1="54.6553" y1="-2.80247" x2="54.6553" y2="37.5677" gradientUnits="userSpaceOnUse">
<stop stop-color="#828282"/>
<stop offset="1" stop-color="#1C1C1C"/>
</linearGradient>
</defs>
</svg>
