<svg width="30" height="33" viewBox="0 0 30 33" fill="none" xmlns="http://www.w3.org/2000/svg">
<path d="M17.1911 13.0783C18.7206 13.0783 20.1875 12.4707 21.2691 11.3891C22.3507 10.3076 22.9583 8.84065 22.9583 7.31111C22.9583 5.78156 22.3507 4.31466 21.2691 3.23311C20.1875 2.15156 18.7206 1.54395 17.1911 1.54395C15.6616 1.54395 14.1947 2.15156 13.1131 3.23311C12.0316 4.31466 11.4239 5.78156 11.4239 7.31111C11.4239 8.84065 12.0316 10.3076 13.1131 11.3891C14.1947 12.4707 15.6616 13.0783 17.1911 13.0783ZM15.132 15.241C10.694 15.241 7.09857 18.8364 7.09857 23.2744C7.09857 24.0133 7.69782 24.6126 8.43673 24.6126H25.9455C26.6844 24.6126 27.2836 24.0133 27.2836 23.2744C27.2836 18.8364 23.6882 15.241 19.2502 15.241H15.132Z" fill="black"/>
<path d="M17.1911 13.0783C18.7206 13.0783 20.1875 12.4707 21.2691 11.3891C22.3507 10.3076 22.9583 8.84065 22.9583 7.31111C22.9583 5.78156 22.3507 4.31466 21.2691 3.23311C20.1875 2.15156 18.7206 1.54395 17.1911 1.54395C15.6616 1.54395 14.1947 2.15156 13.1131 3.23311C12.0316 4.31466 11.4239 5.78156 11.4239 7.31111C11.4239 8.84065 12.0316 10.3076 13.1131 11.3891C14.1947 12.4707 15.6616 13.0783 17.1911 13.0783ZM15.132 15.241C10.694 15.241 7.09857 18.8364 7.09857 23.2744C7.09857 24.0133 7.69782 24.6126 8.43673 24.6126H25.9455C26.6844 24.6126 27.2836 24.0133 27.2836 23.2744C27.2836 18.8364 23.6882 15.241 19.2502 15.241H15.132Z" fill="black" fill-opacity="0.2"/>
<path d="M17.1911 13.0783C18.7206 13.0783 20.1875 12.4707 21.2691 11.3891C22.3507 10.3076 22.9583 8.84065 22.9583 7.31111C22.9583 5.78156 22.3507 4.31466 21.2691 3.23311C20.1875 2.15156 18.7206 1.54395 17.1911 1.54395C15.6616 1.54395 14.1947 2.15156 13.1131 3.23311C12.0316 4.31466 11.4239 5.78156 11.4239 7.31111C11.4239 8.84065 12.0316 10.3076 13.1131 11.3891C14.1947 12.4707 15.6616 13.0783 17.1911 13.0783ZM15.132 15.241C10.694 15.241 7.09857 18.8364 7.09857 23.2744C7.09857 24.0133 7.69782 24.6126 8.43673 24.6126H25.9455C26.6844 24.6126 27.2836 24.0133 27.2836 23.2744C27.2836 18.8364 23.6882 15.241 19.2502 15.241H15.132Z" fill="black" fill-opacity="0.2"/>
<path d="M17.1911 13.0781C18.7206 13.0781 20.1875 12.4705 21.2691 11.389C22.3507 10.3074 22.9583 8.84053 22.9583 7.31098C22.9583 5.78144 22.3507 4.31454 21.2691 3.23299C20.1875 2.15143 18.7206 1.54382 17.1911 1.54382C15.6616 1.54382 14.1947 2.15143 13.1131 3.23299C12.0316 4.31454 11.4239 5.78144 11.4239 7.31098C11.4239 8.84053 12.0316 10.3074 13.1131 11.389C14.1947 12.4705 15.6616 13.0781 17.1911 13.0781ZM15.132 15.2408C10.694 15.2408 7.09857 18.8363 7.09857 23.2743C7.09857 24.0132 7.69782 24.6125 8.43673 24.6125H25.9455C26.6844 24.6125 27.2836 24.0132 27.2836 23.2743C27.2836 18.8363 23.6882 15.2408 19.2502 15.2408H15.132Z" fill="black"/>
<path d="M17.1911 13.0781C18.7206 13.0781 20.1875 12.4705 21.2691 11.389C22.3507 10.3074 22.9583 8.84053 22.9583 7.31098C22.9583 5.78144 22.3507 4.31454 21.2691 3.23299C20.1875 2.15143 18.7206 1.54382 17.1911 1.54382C15.6616 1.54382 14.1947 2.15143 13.1131 3.23299C12.0316 4.31454 11.4239 5.78144 11.4239 7.31098C11.4239 8.84053 12.0316 10.3074 13.1131 11.389C14.1947 12.4705 15.6616 13.0781 17.1911 13.0781ZM15.132 15.2408C10.694 15.2408 7.09857 18.8363 7.09857 23.2743C7.09857 24.0132 7.69782 24.6125 8.43673 24.6125H25.9455C26.6844 24.6125 27.2836 24.0132 27.2836 23.2743C27.2836 18.8363 23.6882 15.2408 19.2502 15.2408H15.132Z" fill="black" fill-opacity="0.2"/>
<path d="M17.1911 13.0781C18.7206 13.0781 20.1875 12.4705 21.2691 11.389C22.3507 10.3074 22.9583 8.84053 22.9583 7.31098C22.9583 5.78144 22.3507 4.31454 21.2691 3.23299C20.1875 2.15143 18.7206 1.54382 17.1911 1.54382C15.6616 1.54382 14.1947 2.15143 13.1131 3.23299C12.0316 4.31454 11.4239 5.78144 11.4239 7.31098C11.4239 8.84053 12.0316 10.3074 13.1131 11.389C14.1947 12.4705 15.6616 13.0781 17.1911 13.0781ZM15.132 15.2408C10.694 15.2408 7.09857 18.8363 7.09857 23.2743C7.09857 24.0132 7.69782 24.6125 8.43673 24.6125H25.9455C26.6844 24.6125 27.2836 24.0132 27.2836 23.2743C27.2836 18.8363 23.6882 15.2408 19.2502 15.2408H15.132Z" fill="black" fill-opacity="0.2"/>
</svg>
