<svg width="10" height="7" viewBox="0 0 10 7" fill="none" xmlns="http://www.w3.org/2000/svg">
<g filter="url(#filter0_b_349_36)">
<path d="M5.98947 5.67791L5.5494 5.98592C5.36306 6.11633 5.06175 6.11633 4.87739 5.98592L1.02379 3.29018C0.837449 3.15976 0.837449 2.94887 1.02379 2.81984L4.87739 0.122715C5.06373 -0.00770182 5.36504 -0.00770182 5.5494 0.122715L5.98947 0.43072C6.17779 0.562524 6.17382 0.777573 5.98154 0.906602L3.59286 2.49935H9.29001C9.55366 2.49935 9.76577 2.6478 9.76577 2.83233V3.2763C9.76577 3.46083 9.55366 3.60928 9.29001 3.60928H3.59286L5.98154 5.20203C6.17581 5.33106 6.17977 5.54611 5.98947 5.67791Z" fill="black"/>
<path d="M5.87389 5.51104L5.87308 5.51161L5.433 5.81961C5.38023 5.85655 5.30106 5.88074 5.21265 5.88074C5.12416 5.88074 5.04596 5.85652 4.99463 5.8202L4.99375 5.81958L1.14018 3.12387C1.14017 3.12387 1.14017 3.12386 1.14016 3.12386C1.08932 3.08826 1.08702 3.06002 1.08702 3.05449C1.08702 3.04916 1.08908 3.02153 1.13935 2.98673L1.13935 2.98673L1.14018 2.98615L4.99379 0.289018C5.04656 0.252084 5.12573 0.227891 5.21414 0.227891C5.30263 0.227891 5.38083 0.252111 5.43217 0.288432L5.433 0.289017L5.87308 0.597023C5.92366 0.632428 5.92537 0.660446 5.92527 0.666208C5.92516 0.672609 5.92174 0.702208 5.86864 0.737908C5.86857 0.737954 5.8685 0.738 5.86843 0.738046L3.48025 2.33046L2.92254 2.70234H3.59286H9.29001C9.3856 2.70234 9.46267 2.72957 9.51036 2.76295C9.55846 2.79661 9.56278 2.82407 9.56278 2.83233V3.2763C9.56278 3.28456 9.55846 3.31202 9.51036 3.34569C9.46267 3.37906 9.3856 3.40629 9.29001 3.40629H3.59286H2.92254L3.48025 3.77817L5.86893 5.37092L5.86923 5.37112C5.9237 5.40729 5.92667 5.43696 5.92676 5.44242C5.92684 5.44721 5.92563 5.47521 5.87389 5.51104Z" stroke="black" stroke-width="0.405977"/>
</g>
<defs>
<filter id="filter0_b_349_36" x="-0.739874" y="-1.59901" width="12.1296" height="9.30641" filterUnits="userSpaceOnUse" color-interpolation-filters="sRGB">
<feFlood flood-opacity="0" result="BackgroundImageFix"/>
<feGaussianBlur in="BackgroundImageFix" stdDeviation="0.811954"/>
<feComposite in2="SourceAlpha" operator="in" result="effect1_backgroundBlur_349_36"/>
<feBlend mode="normal" in="SourceGraphic" in2="effect1_backgroundBlur_349_36" result="shape"/>
</filter>
</defs>
</svg>
