<svg width="27" height="24" viewBox="0 0 27 24" fill="none" xmlns="http://www.w3.org/2000/svg">
<path d="M0.793945 1.26591C0.793945 0.666669 1.27604 0.18457 1.87529 0.18457H3.92533C4.91656 0.18457 5.79515 0.761286 6.20516 1.62636H24.7232C25.9081 1.62636 26.7732 2.75276 26.4623 3.89718L24.615 10.7592C24.232 12.174 22.948 13.1607 21.4836 13.1607H8.48499L8.7283 14.4448C8.82742 14.9539 9.27347 15.3234 9.79162 15.3234H22.7812C23.3805 15.3234 23.8626 15.8055 23.8626 16.4047C23.8626 17.004 23.3805 17.486 22.7812 17.486H9.79162C8.23268 17.486 6.89452 16.3777 6.60616 14.8503L4.28128 2.64012C4.24974 2.46891 4.10105 2.34726 3.92533 2.34726H1.87529C1.27604 2.34726 0.793945 1.86516 0.793945 1.26591ZM6.56111 21.0905C6.56111 20.8065 6.61704 20.5253 6.72573 20.2629C6.83442 20.0005 6.99372 19.7621 7.19454 19.5613C7.39537 19.3605 7.63378 19.2011 7.89617 19.0925C8.15856 18.9838 8.43978 18.9278 8.72379 18.9278C9.0078 18.9278 9.28903 18.9838 9.55141 19.0925C9.8138 19.2011 10.0522 19.3605 10.253 19.5613C10.4539 19.7621 10.6132 20.0005 10.7219 20.2629C10.8305 20.5253 10.8865 20.8065 10.8865 21.0905C10.8865 21.3745 10.8305 21.6558 10.7219 21.9181C10.6132 22.1805 10.4539 22.419 10.253 22.6198C10.0522 22.8206 9.8138 22.9799 9.55141 23.0886C9.28903 23.1973 9.0078 23.2532 8.72379 23.2532C8.43978 23.2532 8.15856 23.1973 7.89617 23.0886C7.63378 22.9799 7.39537 22.8206 7.19454 22.6198C6.99372 22.419 6.83442 22.1805 6.72573 21.9181C6.61704 21.6558 6.56111 21.3745 6.56111 21.0905ZM21.6999 18.9278C22.2735 18.9278 22.8236 19.1557 23.2292 19.5613C23.6347 19.9669 23.8626 20.5169 23.8626 21.0905C23.8626 21.6641 23.6347 22.2142 23.2292 22.6198C22.8236 23.0254 22.2735 23.2532 21.6999 23.2532C21.1263 23.2532 20.5762 23.0254 20.1707 22.6198C19.7651 22.2142 19.5372 21.6641 19.5372 21.0905C19.5372 20.5169 19.7651 19.9669 20.1707 19.5613C20.5762 19.1557 21.1263 18.9278 21.6999 18.9278Z" fill="black"/>
</svg>
