<svg width="44" height="45" viewBox="0 0 44 45" fill="none" xmlns="http://www.w3.org/2000/svg">
<path d="M41.9017 2.82971H30.2602L29.3483 1.19351C29.1551 0.843711 28.8576 0.549466 28.4891 0.343879C28.1206 0.138292 27.6958 0.0295202 27.2626 0.0298005H16.1741C15.7418 0.0283016 15.3177 0.136668 14.9506 0.342483C14.5834 0.548299 14.2879 0.843239 14.098 1.19351L13.1861 2.82971H1.54463C1.13296 2.82971 0.738152 2.9772 0.447059 3.23974C0.155966 3.50229 -0.00756836 3.85837 -0.00756836 4.22966L-0.00756836 7.02957C-0.00756836 7.40086 0.155966 7.75694 0.447059 8.01948C0.738152 8.28203 1.13296 8.42952 1.54463 8.42952H41.9017C42.3134 8.42952 42.7082 8.28203 42.9993 8.01948C43.2904 7.75694 43.4539 7.40086 43.4539 7.02957V4.22966C43.4539 3.85837 43.2904 3.50229 42.9993 3.23974C42.7082 2.9772 42.3134 2.82971 41.9017 2.82971ZM5.15348 40.8909C5.22751 41.9572 5.74929 42.9579 6.6126 43.6894C7.4759 44.4209 8.61584 44.8282 9.80036 44.8283H33.646C34.8305 44.8282 35.9704 44.4209 36.8337 43.6894C37.697 42.9579 38.2188 41.9572 38.2928 40.8909L40.3495 11.2294H3.09682L5.15348 40.8909Z" fill="white"/>
</svg>
