<svg width="27" height="24" viewBox="0 0 27 24" fill="none" xmlns="http://www.w3.org/2000/svg">
<path d="M0.757324 1.51396C0.757324 0.914716 1.23942 0.432617 1.83867 0.432617H3.88871C4.87994 0.432617 5.75853 1.00933 6.16854 1.87441H24.6865C25.8715 1.87441 26.7366 3.00081 26.4257 4.14523L24.5784 11.0072C24.1954 12.422 22.9113 13.4087 21.447 13.4087H8.44837L8.69168 14.6928C8.7908 15.202 9.23685 15.5714 9.755 15.5714H22.7446C23.3439 15.5714 23.826 16.0535 23.826 16.6528C23.826 17.252 23.3439 17.7341 22.7446 17.7341H9.755C8.19606 17.7341 6.8579 16.6257 6.56954 15.0983L4.24465 2.88817C4.21311 2.71695 4.06443 2.5953 3.88871 2.5953H1.83867C1.23942 2.5953 0.757324 2.1132 0.757324 1.51396ZM6.52448 21.3386C6.52448 21.0546 6.58042 20.7733 6.68911 20.5109C6.79779 20.2486 6.9571 20.0101 7.15792 19.8093C7.35874 19.6085 7.59716 19.4492 7.85955 19.3405C8.12193 19.2318 8.40316 19.1759 8.68717 19.1759C8.97118 19.1759 9.2524 19.2318 9.51479 19.3405C9.77718 19.4492 10.0156 19.6085 10.2164 19.8093C10.4172 20.0101 10.5765 20.2486 10.6852 20.5109C10.7939 20.7733 10.8499 21.0546 10.8499 21.3386C10.8499 21.6226 10.7939 21.9038 10.6852 22.1662C10.5765 22.4286 10.4172 22.667 10.2164 22.8678C10.0156 23.0686 9.77718 23.2279 9.51479 23.3366C9.2524 23.4453 8.97118 23.5013 8.68717 23.5013C8.40316 23.5013 8.12193 23.4453 7.85955 23.3366C7.59716 23.2279 7.35874 23.0686 7.15792 22.8678C6.9571 22.667 6.79779 22.4286 6.68911 22.1662C6.58042 21.9038 6.52448 21.6226 6.52448 21.3386ZM21.6633 19.1759C22.2369 19.1759 22.7869 19.4037 23.1925 19.8093C23.5981 20.2149 23.826 20.765 23.826 21.3386C23.826 21.9122 23.5981 22.4622 23.1925 22.8678C22.7869 23.2734 22.2369 23.5013 21.6633 23.5013C21.0897 23.5013 20.5396 23.2734 20.134 22.8678C19.7284 22.4622 19.5006 21.9122 19.5006 21.3386C19.5006 20.765 19.7284 20.2149 20.134 19.8093C20.5396 19.4037 21.0897 19.1759 21.6633 19.1759Z" fill="black"/>
</svg>
