<svg width="25" height="22" viewBox="0 0 25 22" fill="none" xmlns="http://www.w3.org/2000/svg">
<path d="M0 1.0305C0 0.459431 0.459431 0 1.0305 0H2.98416C3.92878 0 4.76606 0.5496 5.1568 1.374H22.8041C23.9334 1.374 24.7578 2.44744 24.4615 3.53805L22.7011 10.0774C22.3361 11.4257 21.1124 12.366 19.7169 12.366H7.32943L7.5613 13.5897C7.65576 14.0749 8.08084 14.427 8.57462 14.427H20.9535C21.5246 14.427 21.984 14.8864 21.984 15.4575C21.984 16.0286 21.5246 16.488 20.9535 16.488H8.57462C7.08898 16.488 5.81374 15.4317 5.53894 13.9762L3.32336 2.34009C3.29331 2.17693 3.15161 2.061 2.98416 2.061H1.0305C0.459431 2.061 0 1.60157 0 1.0305ZM5.496 19.923C5.496 19.6523 5.54931 19.3843 5.65289 19.1343C5.75646 18.8842 5.90827 18.657 6.09965 18.4657C6.29104 18.2743 6.51824 18.1225 6.76829 18.0189C7.01834 17.9153 7.28635 17.862 7.557 17.862C7.82766 17.862 8.09566 17.9153 8.34571 18.0189C8.59576 18.1225 8.82297 18.2743 9.01435 18.4657C9.20573 18.657 9.35754 18.8842 9.46112 19.1343C9.56469 19.3843 9.618 19.6523 9.618 19.923C9.618 20.1937 9.56469 20.4617 9.46112 20.7117C9.35754 20.9618 9.20573 21.189 9.01435 21.3804C8.82297 21.5717 8.59576 21.7235 8.34571 21.8271C8.09566 21.9307 7.82766 21.984 7.557 21.984C7.28635 21.984 7.01834 21.9307 6.76829 21.8271C6.51824 21.7235 6.29104 21.5717 6.09965 21.3804C5.90827 21.189 5.75646 20.9618 5.65289 20.7117C5.54931 20.4617 5.496 20.1937 5.496 19.923ZM19.923 17.862C20.4696 17.862 20.9938 18.0791 21.3804 18.4657C21.7669 18.8522 21.984 19.3764 21.984 19.923C21.984 20.4696 21.7669 20.9938 21.3804 21.3804C20.9938 21.7669 20.4696 21.984 19.923 21.984C19.3764 21.984 18.8522 21.7669 18.4657 21.3804C18.0791 20.9938 17.862 20.4696 17.862 19.923C17.862 19.3764 18.0791 18.8522 18.4657 18.4657C18.8522 18.0791 19.3764 17.862 19.923 17.862Z" fill="black"/>
</svg>
