<svg width="11" height="12" viewBox="0 0 11 12" fill="none" xmlns="http://www.w3.org/2000/svg">
<path d="M2.80136 2.83979C2.6525 2.83979 2.5307 2.96158 2.5307 3.11044V8.52346C2.5307 8.67232 2.6525 8.79411 2.80136 8.79411H8.21438C8.36324 8.79411 8.48503 8.67232 8.48503 8.52346V3.11044C8.48503 2.96158 8.36324 2.83979 8.21438 2.83979H2.80136ZM1.71875 3.11044C1.71875 2.51331 2.20423 2.02783 2.80136 2.02783H8.21438C8.8115 2.02783 9.29699 2.51331 9.29699 3.11044V8.52346C9.29699 9.12059 8.8115 9.60607 8.21438 9.60607H2.80136C2.20423 9.60607 1.71875 9.12059 1.71875 8.52346V3.11044ZM7.41934 5.02191L5.25413 7.18712C5.09512 7.34613 4.83801 7.34613 4.68069 7.18712L3.59808 6.10452C3.43908 5.94551 3.43908 5.68839 3.59808 5.53107C3.75709 5.37376 4.01421 5.37207 4.17153 5.53107L4.96657 6.32611L6.84421 4.44678C7.00322 4.28777 7.26033 4.28777 7.41765 4.44678C7.57497 4.60579 7.57666 4.8629 7.41765 5.02022L7.41934 5.02191Z" fill="black"/>
</svg>
