<svg width="54" height="52" viewBox="0 0 54 52" fill="none" xmlns="http://www.w3.org/2000/svg">
<path d="M49.7936 20.7321H32.8141V4.40188C32.8141 2.39803 31.1244 0.772949 29.0409 0.772949H25.2677C23.1841 0.772949 21.4944 2.39803 21.4944 4.40188V20.7321H4.51492C2.4314 20.7321 0.741699 22.3571 0.741699 24.361V27.9899C0.741699 29.9938 2.4314 31.6189 4.51492 31.6189H21.4944V47.949C21.4944 49.9529 23.1841 51.578 25.2677 51.578H29.0409C31.1244 51.578 32.8141 49.9529 32.8141 47.949V31.6189H49.7936C51.8771 31.6189 53.5668 29.9938 53.5668 27.9899V24.361C53.5668 22.3571 51.8771 20.7321 49.7936 20.7321Z" fill="black"/>
</svg>
