<svg width="8" height="12" viewBox="0 0 8 12" fill="none" xmlns="http://www.w3.org/2000/svg">
<path d="M6.85598 4.70396H4.57124V1.06381C4.57124 0.617129 4.34388 0.254883 4.06352 0.254883H3.5558C3.27544 0.254883 3.04808 0.617129 3.04808 1.06381V4.70396H0.763336C0.482979 4.70396 0.255615 5.0662 0.255615 5.51288V6.3218C0.255615 6.76848 0.482979 7.13073 0.763336 7.13073H3.04808V10.7709C3.04808 11.2176 3.27544 11.5798 3.5558 11.5798H4.06352C4.34388 11.5798 4.57124 11.2176 4.57124 10.7709V7.13073H6.85598C7.13634 7.13073 7.3637 6.76848 7.3637 6.3218V5.51288C7.3637 5.0662 7.13634 4.70396 6.85598 4.70396Z" fill="black"/>
</svg>
