<svg width="102" height="17" viewBox="0 0 102 17" fill="none" xmlns="http://www.w3.org/2000/svg">
<path d="M89.5679 2.63322V0.635742H101.47V2.63322H96.6717V16.0148H94.3588V2.63322H89.5679Z" fill="url(#paint0_linear_48_52)"/>
<path d="M87.5497 5.63676H85.2068C85.1167 5.13614 84.949 4.6956 84.7037 4.31512C84.4584 3.93465 84.158 3.61175 83.8026 3.34642C83.4471 3.08109 83.0491 2.88084 82.6086 2.74567C82.1731 2.61051 81.71 2.54292 81.2194 2.54292C80.3333 2.54292 79.5398 2.7657 78.8389 3.21125C78.1431 3.65681 77.5924 4.31012 77.1869 5.17119C76.7864 6.03225 76.5861 7.08356 76.5861 8.3251C76.5861 9.57666 76.7864 10.633 77.1869 11.494C77.5924 12.3551 78.1456 13.0059 78.8464 13.4465C79.5473 13.887 80.3358 14.1073 81.2119 14.1073C81.6975 14.1073 82.158 14.0422 82.5936 13.912C83.0341 13.7769 83.4321 13.5791 83.7876 13.3188C84.143 13.0585 84.4434 12.7406 84.6887 12.3651C84.939 11.9846 85.1117 11.5491 85.2068 11.0585L87.5497 11.066C87.4246 11.8219 87.1818 12.5178 86.8213 13.1536C86.4659 13.7844 86.0078 14.3301 85.4471 14.7906C84.8914 15.2462 84.2556 15.5991 83.5398 15.8494C82.8239 16.0998 82.0429 16.2249 81.1968 16.2249C79.8652 16.2249 78.6787 15.9095 77.6374 15.2787C76.5961 14.6429 75.7751 13.7343 75.1744 12.5528C74.5786 11.3714 74.2808 9.96213 74.2808 8.3251C74.2808 6.68306 74.5811 5.27381 75.1819 4.09735C75.7826 2.91589 76.6036 2.00976 77.6449 1.37898C78.6862 0.743188 79.8702 0.425293 81.1968 0.425293C82.0129 0.425293 82.7738 0.54294 83.4797 0.778232C84.1906 1.00852 84.8289 1.34894 85.3946 1.7995C85.9603 2.24505 86.4283 2.79073 86.7988 3.43653C87.1693 4.07733 87.4196 4.81074 87.5497 5.63676Z" fill="url(#paint1_linear_48_52)"/>
<path d="M61.9917 16.0148H59.5287L65.0631 0.635742H67.7439L73.2783 16.0148H70.8152L66.4673 3.42921H66.3472L61.9917 16.0148ZM62.4048 9.99236H70.3947V11.9448H62.4048V9.99236Z" fill="url(#paint2_linear_48_52)"/>
<path d="M47.9777 2.63322V0.635742H59.8799V2.63322H55.0815V16.0148H52.7686V2.63322H47.9777Z" fill="url(#paint3_linear_48_52)"/>
<path d="M45.3511 0.635742V16.0148H43.2185L35.4013 4.73583H35.2586V16.0148H32.9382V0.635742H35.0859L42.9106 11.9298H43.0533V0.635742H45.3511Z" fill="url(#paint4_linear_48_52)"/>
<path d="M30.0451 8.3251C30.0451 9.96714 29.7448 11.3789 29.144 12.5604C28.5433 13.7368 27.7197 14.6429 26.6734 15.2787C25.6322 15.9095 24.4482 16.2249 23.1215 16.2249C21.7899 16.2249 20.6009 15.9095 19.5546 15.2787C18.5133 14.6429 17.6923 13.7343 17.0915 12.5528C16.4908 11.3714 16.1904 9.96213 16.1904 8.3251C16.1904 6.68306 16.4908 5.27381 17.0915 4.09735C17.6923 2.91589 18.5133 2.00976 19.5546 1.37898C20.6009 0.743188 21.7899 0.425293 23.1215 0.425293C24.4482 0.425293 25.6322 0.743188 26.6734 1.37898C27.7197 2.00976 28.5433 2.91589 29.144 4.09735C29.7448 5.27381 30.0451 6.68306 30.0451 8.3251ZM27.7473 8.3251C27.7473 7.07355 27.5445 6.01974 27.139 5.16368C26.7385 4.30261 26.1878 3.6518 25.487 3.21125C24.7911 2.7657 24.0026 2.54292 23.1215 2.54292C22.2354 2.54292 21.4445 2.7657 20.7486 3.21125C20.0527 3.6518 19.502 4.30261 19.0965 5.16368C18.696 6.01974 18.4958 7.07355 18.4958 8.3251C18.4958 9.57666 18.696 10.633 19.0965 11.494C19.502 12.3501 20.0527 13.0009 20.7486 13.4465C21.4445 13.887 22.2354 14.1073 23.1215 14.1073C24.0026 14.1073 24.7911 13.887 25.487 13.4465C26.1878 13.0009 26.7385 12.3501 27.139 11.494C27.5445 10.633 27.7473 9.57666 27.7473 8.3251Z" fill="url(#paint5_linear_48_52)"/>
<path d="M13.9096 5.63676H11.5667C11.4766 5.13614 11.3089 4.6956 11.0636 4.31512C10.8183 3.93465 10.5179 3.61175 10.1624 3.34642C9.80701 3.08109 9.40901 2.88084 8.96846 2.74567C8.53292 2.61051 8.06985 2.54292 7.57924 2.54292C6.69314 2.54292 5.89965 2.7657 5.19878 3.21125C4.50292 3.65681 3.95224 4.31012 3.54673 5.17119C3.14624 6.03225 2.94599 7.08356 2.94599 8.3251C2.94599 9.57666 3.14624 10.633 3.54673 11.494C3.95224 12.3551 4.50542 13.0059 5.20629 13.4465C5.90716 13.887 6.69564 14.1073 7.57173 14.1073C8.05733 14.1073 8.51791 14.0422 8.95345 13.912C9.39399 13.7769 9.79199 13.5791 10.1474 13.3188C10.5029 13.0585 10.8032 12.7406 11.0485 12.3651C11.2989 11.9846 11.4716 11.5491 11.5667 11.0585L13.9096 11.066C13.7844 11.8219 13.5416 12.5178 13.1812 13.1536C12.8258 13.7844 12.3677 14.3301 11.807 14.7906C11.2513 15.2462 10.6155 15.5991 9.89962 15.8494C9.18373 16.0998 8.40276 16.2249 7.55671 16.2249C6.22506 16.2249 5.03859 15.9095 3.99729 15.2787C2.956 14.6429 2.13498 13.7343 1.53423 12.5528C0.938495 11.3714 0.640625 9.96213 0.640625 8.3251C0.640625 6.68306 0.940998 5.27381 1.54174 4.09735C2.14249 2.91589 2.96351 2.00976 4.0048 1.37898C5.04609 0.743188 6.23006 0.425293 7.55671 0.425293C8.37273 0.425293 9.13367 0.54294 9.83955 0.778232C10.5504 1.00852 11.1887 1.34894 11.7544 1.7995C12.3201 2.24505 12.7882 2.79073 13.1587 3.43653C13.5291 4.07733 13.7794 4.81074 13.9096 5.63676Z" fill="url(#paint6_linear_48_52)"/>
<defs>
<linearGradient id="paint0_linear_48_52" x1="58.0794" y1="-7.80247" x2="58.0794" y2="32.5677" gradientUnits="userSpaceOnUse">
<stop stop-color="#828282"/>
<stop offset="1" stop-color="#1C1C1C"/>
</linearGradient>
<linearGradient id="paint1_linear_48_52" x1="58.0794" y1="-7.80266" x2="58.0794" y2="32.5675" gradientUnits="userSpaceOnUse">
<stop stop-color="#828282"/>
<stop offset="1" stop-color="#1C1C1C"/>
</linearGradient>
<linearGradient id="paint2_linear_48_52" x1="58.0794" y1="-7.80247" x2="58.0794" y2="32.5677" gradientUnits="userSpaceOnUse">
<stop stop-color="#828282"/>
<stop offset="1" stop-color="#1C1C1C"/>
</linearGradient>
<linearGradient id="paint3_linear_48_52" x1="58.0796" y1="-7.80247" x2="58.0796" y2="32.5677" gradientUnits="userSpaceOnUse">
<stop stop-color="#828282"/>
<stop offset="1" stop-color="#1C1C1C"/>
</linearGradient>
<linearGradient id="paint4_linear_48_52" x1="58.0795" y1="-7.80247" x2="58.0795" y2="32.5677" gradientUnits="userSpaceOnUse">
<stop stop-color="#828282"/>
<stop offset="1" stop-color="#1C1C1C"/>
</linearGradient>
<linearGradient id="paint5_linear_48_52" x1="58.0793" y1="-7.80266" x2="58.0793" y2="32.5675" gradientUnits="userSpaceOnUse">
<stop stop-color="#828282"/>
<stop offset="1" stop-color="#1C1C1C"/>
</linearGradient>
<linearGradient id="paint6_linear_48_52" x1="58.0794" y1="-7.80266" x2="58.0794" y2="32.5675" gradientUnits="userSpaceOnUse">
<stop stop-color="#828282"/>
<stop offset="1" stop-color="#1C1C1C"/>
</linearGradient>
</defs>
</svg>
