<svg width="61" height="17" viewBox="0 0 61 17" fill="none" xmlns="http://www.w3.org/2000/svg">
<path d="M50.9474 16.0148V0.635742H60.5894V2.63322H53.2678V7.31904H60.0863V9.30901H53.2678V14.0174H60.6795V16.0148H50.9474Z" fill="url(#paint0_linear_48_68)"/>
<path d="M31.9695 0.635742H34.7855L39.6816 12.5906H39.8618L44.7579 0.635742H47.5739V16.0148H45.3662V4.88602H45.2235L40.6879 15.9923H38.8556L34.32 4.87851H34.1773V16.0148H31.9695V0.635742Z" fill="url(#paint1_linear_48_68)"/>
<path d="M29.0764 8.3251C29.0764 9.96714 28.7761 11.3789 28.1753 12.5604C27.5746 13.7368 26.7511 14.6429 25.7048 15.2787C24.6635 15.9095 23.4795 16.2249 22.1528 16.2249C20.8212 16.2249 19.6322 15.9095 18.5859 15.2787C17.5446 14.6429 16.7236 13.7343 16.1229 12.5528C15.5221 11.3714 15.2217 9.96213 15.2217 8.3251C15.2217 6.68306 15.5221 5.27381 16.1229 4.09735C16.7236 2.91589 17.5446 2.00976 18.5859 1.37898C19.6322 0.743188 20.8212 0.425293 22.1528 0.425293C23.4795 0.425293 24.6635 0.743188 25.7048 1.37898C26.7511 2.00976 27.5746 2.91589 28.1753 4.09735C28.7761 5.27381 29.0764 6.68306 29.0764 8.3251ZM26.7786 8.3251C26.7786 7.07355 26.5758 6.01974 26.1703 5.16368C25.7698 4.30261 25.2192 3.6518 24.5183 3.21125C23.8224 2.7657 23.0339 2.54292 22.1528 2.54292C21.2667 2.54292 20.4758 2.7657 19.7799 3.21125C19.084 3.6518 18.5334 4.30261 18.1278 5.16368C17.7274 6.01974 17.5271 7.07355 17.5271 8.3251C17.5271 9.57666 17.7274 10.633 18.1278 11.494C18.5334 12.3501 19.084 13.0009 19.7799 13.4465C20.4758 13.887 21.2667 14.1073 22.1528 14.1073C23.0339 14.1073 23.8224 13.887 24.5183 13.4465C25.2192 13.0009 25.7698 12.3501 26.1703 11.494C26.5758 10.633 26.7786 9.57666 26.7786 8.3251Z" fill="url(#paint2_linear_48_68)"/>
<path d="M0.0229492 16.0148V0.635742H2.34333V7.31904H10.0104V0.635742H12.3382V16.0148H10.0104V9.30901H2.34333V16.0148H0.0229492Z" fill="url(#paint3_linear_48_68)"/>
<defs>
<linearGradient id="paint0_linear_48_68" x1="33.4169" y1="-7.80247" x2="33.4169" y2="32.5677" gradientUnits="userSpaceOnUse">
<stop stop-color="#828282"/>
<stop offset="1" stop-color="#1C1C1C"/>
</linearGradient>
<linearGradient id="paint1_linear_48_68" x1="33.417" y1="-7.80247" x2="33.417" y2="32.5677" gradientUnits="userSpaceOnUse">
<stop stop-color="#828282"/>
<stop offset="1" stop-color="#1C1C1C"/>
</linearGradient>
<linearGradient id="paint2_linear_48_68" x1="33.4168" y1="-7.80266" x2="33.4168" y2="32.5675" gradientUnits="userSpaceOnUse">
<stop stop-color="#828282"/>
<stop offset="1" stop-color="#1C1C1C"/>
</linearGradient>
<linearGradient id="paint3_linear_48_68" x1="33.4169" y1="-7.80247" x2="33.4169" y2="32.5677" gradientUnits="userSpaceOnUse">
<stop stop-color="#828282"/>
<stop offset="1" stop-color="#1C1C1C"/>
</linearGradient>
</defs>
</svg>
