<svg width="165" height="17" viewBox="0 0 165 17" fill="none" xmlns="http://www.w3.org/2000/svg">
<path d="M155.083 13.6931C154.814 13.6931 154.583 13.5966 154.39 13.4037C154.197 13.2107 154.1 12.9795 154.1 12.7101C154.1 12.4407 154.197 12.2095 154.39 12.0165C154.583 11.8235 154.814 11.7271 155.083 11.7271C155.353 11.7271 155.584 11.8235 155.777 12.0165C155.97 12.2095 156.066 12.4407 156.066 12.7101C156.066 12.8885 156.021 13.0523 155.93 13.2016C155.842 13.3509 155.724 13.471 155.575 13.5621C155.429 13.6494 155.265 13.6931 155.083 13.6931ZM159.277 13.6931C159.008 13.6931 158.777 13.5966 158.584 13.4037C158.391 13.2107 158.294 12.9795 158.294 12.7101C158.294 12.4407 158.391 12.2095 158.584 12.0165C158.777 11.8235 159.008 11.7271 159.277 11.7271C159.547 11.7271 159.778 11.8235 159.971 12.0165C160.164 12.2095 160.26 12.4407 160.26 12.7101C160.26 12.8885 160.215 13.0523 160.124 13.2016C160.037 13.3509 159.918 13.471 159.769 13.5621C159.623 13.6494 159.459 13.6931 159.277 13.6931ZM163.472 13.6931C163.202 13.6931 162.971 13.5966 162.778 13.4037C162.585 13.2107 162.489 12.9795 162.489 12.7101C162.489 12.4407 162.585 12.2095 162.778 12.0165C162.971 11.8235 163.202 11.7271 163.472 11.7271C163.741 11.7271 163.972 11.8235 164.165 12.0165C164.358 12.2095 164.455 12.4407 164.455 12.7101C164.455 12.8885 164.409 13.0523 164.318 13.2016C164.231 13.3509 164.113 13.471 163.963 13.5621C163.818 13.6494 163.654 13.6931 163.472 13.6931Z" fill="url(#paint0_linear_48_74)"/>
<path d="M150.848 13.6931C150.578 13.6931 150.347 13.5966 150.154 13.4037C149.961 13.2107 149.865 12.9795 149.865 12.7101C149.865 12.4407 149.961 12.2095 150.154 12.0165C150.347 11.8235 150.578 11.7271 150.848 11.7271C151.117 11.7271 151.349 11.8235 151.541 12.0165C151.734 12.2095 151.831 12.4407 151.831 12.7101C151.831 12.8885 151.785 13.0523 151.694 13.2016C151.607 13.3509 151.489 13.471 151.339 13.5621C151.194 13.6494 151.03 13.6931 150.848 13.6931Z" fill="url(#paint1_linear_48_74)"/>
<path d="M146.613 13.6931C146.343 13.6931 146.112 13.5966 145.919 13.4037C145.726 13.2107 145.63 12.9795 145.63 12.7101C145.63 12.4407 145.726 12.2095 145.919 12.0165C146.112 11.8235 146.343 11.7271 146.613 11.7271C146.882 11.7271 147.113 11.8235 147.306 12.0165C147.499 12.2095 147.596 12.4407 147.596 12.7101C147.596 12.8885 147.55 13.0523 147.459 13.2016C147.372 13.3509 147.253 13.471 147.104 13.5621C146.959 13.6494 146.795 13.6931 146.613 13.6931Z" fill="url(#paint2_linear_48_74)"/>
<path d="M142.377 13.6931C142.108 13.6931 141.877 13.5966 141.684 13.4037C141.491 13.2107 141.394 12.9795 141.394 12.7101C141.394 12.4407 141.491 12.2095 141.684 12.0165C141.877 11.8235 142.108 11.7271 142.377 11.7271C142.647 11.7271 142.878 11.8235 143.071 12.0165C143.264 12.2095 143.36 12.4407 143.36 12.7101C143.36 12.8885 143.315 13.0523 143.224 13.2016C143.137 13.3509 143.018 13.471 142.869 13.5621C142.723 13.6494 142.559 13.6931 142.377 13.6931Z" fill="url(#paint3_linear_48_74)"/>
<path d="M128.071 13.6057V5.21714H129.317V6.52785H129.426C129.601 6.08003 129.883 5.73232 130.272 5.48474C130.662 5.23352 131.13 5.10791 131.676 5.10791C132.229 5.10791 132.69 5.23352 133.058 5.48474C133.429 5.73232 133.718 6.08003 133.926 6.52785H134.013C134.228 6.09459 134.55 5.75053 134.98 5.49566C135.41 5.23716 135.925 5.10791 136.526 5.10791C137.276 5.10791 137.889 5.34275 138.366 5.81242C138.843 6.27845 139.081 7.00481 139.081 7.99149V13.6057H137.793V7.99149C137.793 7.37254 137.623 6.93017 137.285 6.66439C136.946 6.3986 136.547 6.26571 136.089 6.26571C135.499 6.26571 135.042 6.44411 134.718 6.80092C134.394 7.15409 134.232 7.60192 134.232 8.14441V13.6057H132.921V7.86042C132.921 7.38346 132.766 6.99935 132.457 6.70808C132.147 6.41317 131.749 6.26571 131.261 6.26571C130.926 6.26571 130.613 6.35491 130.321 6.53332C130.034 6.71172 129.801 6.9593 129.622 7.27606C129.448 7.58917 129.36 7.95144 129.36 8.36286V13.6057H128.071Z" fill="url(#paint4_linear_48_74)"/>
<path d="M121.874 13.8025C121.343 13.8025 120.86 13.7024 120.427 13.5021C119.994 13.2982 119.65 13.0051 119.395 12.6228C119.14 12.2369 119.012 11.7709 119.012 11.2247C119.012 10.7441 119.107 10.3546 119.296 10.056C119.486 9.75381 119.739 9.51715 120.056 9.34603C120.372 9.17491 120.722 9.04748 121.104 8.96374C121.49 8.87636 121.878 8.80718 122.267 8.75621C122.777 8.69067 123.19 8.64152 123.507 8.60875C123.828 8.57235 124.061 8.51227 124.206 8.42853C124.355 8.34479 124.43 8.19915 124.43 7.99162V7.94793C124.43 7.40908 124.283 6.99038 123.988 6.69183C123.696 6.39328 123.254 6.244 122.661 6.244C122.045 6.244 121.563 6.37871 121.213 6.64814C120.864 6.91756 120.618 7.20519 120.476 7.51103L119.253 7.07412C119.471 6.5644 119.762 6.16754 120.127 5.88355C120.494 5.59592 120.895 5.39567 121.328 5.28281C121.765 5.1663 122.195 5.10804 122.617 5.10804C122.886 5.10804 123.196 5.14081 123.545 5.20635C123.899 5.26824 124.239 5.39749 124.567 5.5941C124.898 5.79071 125.173 6.08744 125.391 6.4843C125.61 6.88115 125.719 7.41272 125.719 8.07901V13.6059H124.43V12.4699H124.365C124.277 12.652 124.132 12.8467 123.928 13.0543C123.724 13.2618 123.453 13.4384 123.114 13.584C122.775 13.7297 122.362 13.8025 121.874 13.8025ZM122.071 12.6447C122.581 12.6447 123.01 12.5446 123.36 12.3443C123.713 12.1441 123.979 11.8856 124.157 11.5688C124.339 11.252 124.43 10.9189 124.43 10.5694V9.38972C124.375 9.45526 124.255 9.51533 124.07 9.56995C123.888 9.62092 123.676 9.66643 123.436 9.70648C123.199 9.74289 122.968 9.77566 122.743 9.80478C122.52 9.83027 122.34 9.85212 122.202 9.87032C121.867 9.91401 121.554 9.98501 121.263 10.0833C120.975 10.178 120.742 10.3218 120.563 10.5148C120.389 10.7041 120.301 10.9626 120.301 11.2903C120.301 11.7381 120.467 12.0767 120.798 12.3061C121.133 12.5318 121.557 12.6447 122.071 12.6447ZM123.447 2.33369L125.522 4.32161H124.168L122.682 2.94536L121.219 4.32161H119.864L121.94 2.33369H123.447ZM125.741 3.27304H124.823V2.26815C125.129 2.24631 125.355 2.20626 125.501 2.148C125.646 2.08611 125.719 1.97324 125.719 1.8094C125.719 1.63464 125.621 1.51085 125.424 1.43803C125.231 1.36521 124.987 1.32881 124.692 1.32881L124.736 0.60791C125.391 0.60791 125.886 0.718957 126.221 0.941051C126.556 1.16315 126.724 1.45988 126.724 1.83125C126.724 2.15893 126.622 2.39741 126.418 2.54668C126.218 2.69232 125.992 2.78152 125.741 2.81429V3.27304Z" fill="url(#paint5_linear_48_74)"/>
<path d="M111.608 8.55943V13.6057H110.319V2.4209H111.608V6.52782H111.718C111.914 6.09455 112.209 5.75049 112.602 5.49563C112.999 5.23712 113.527 5.10787 114.186 5.10787C114.758 5.10787 115.258 5.22256 115.688 5.45193C116.118 5.67767 116.451 6.02537 116.687 6.49505C116.928 6.96108 117.048 7.55455 117.048 8.27544V13.6057H115.759V8.36282C115.759 7.69654 115.586 7.18135 115.24 6.81727C114.898 6.44954 114.423 6.26567 113.815 6.26567C113.392 6.26567 113.014 6.35487 112.679 6.53328C112.347 6.71168 112.085 6.972 111.892 7.31425C111.703 7.65649 111.608 8.07155 111.608 8.55943Z" fill="url(#paint6_linear_48_74)"/>
<path d="M100.948 16.7515V5.21714H102.193V6.5497H102.346C102.441 6.40407 102.572 6.21838 102.739 5.99264C102.91 5.76327 103.154 5.55938 103.471 5.38098C103.791 5.19893 104.225 5.10791 104.771 5.10791C105.477 5.10791 106.1 5.28449 106.638 5.63766C107.177 5.99082 107.598 6.49145 107.9 7.13952C108.202 7.7876 108.353 8.55219 108.353 9.43328C108.353 10.3217 108.202 11.0917 107.9 11.7434C107.598 12.3915 107.179 12.8939 106.644 13.2507C106.109 13.6039 105.492 13.7805 104.793 13.7805C104.254 13.7805 103.822 13.6913 103.498 13.5129C103.174 13.3308 102.925 13.1251 102.75 12.8958C102.575 12.6627 102.441 12.4698 102.346 12.3169H102.237V16.7515H100.948ZM102.215 9.41143C102.215 10.0449 102.308 10.6038 102.493 11.0881C102.679 11.5687 102.95 11.9455 103.307 12.2186C103.664 12.488 104.101 12.6227 104.618 12.6227C105.157 12.6227 105.606 12.4807 105.967 12.1967C106.331 11.9091 106.604 11.5231 106.786 11.0389C106.972 10.551 107.064 10.0085 107.064 9.41143C107.064 8.82161 106.973 8.29004 106.791 7.81673C106.613 7.33977 106.342 6.96294 105.978 6.68623C105.617 6.40588 105.164 6.26571 104.618 6.26571C104.093 6.26571 103.653 6.3986 103.296 6.66439C102.939 6.92653 102.67 7.29426 102.488 7.76758C102.306 8.23725 102.215 8.7852 102.215 9.41143Z" fill="url(#paint7_linear_48_74)"/>
<path d="M88.9151 8.55947V13.6057H87.6262V5.21714H88.8714V6.52785H88.9806C89.1772 6.10187 89.4758 5.75963 89.8763 5.50113C90.2768 5.23898 90.7938 5.10791 91.4273 5.10791C91.9953 5.10791 92.4923 5.22442 92.9182 5.45743C93.3442 5.68681 93.6755 6.03634 93.9122 6.50601C94.1489 6.97204 94.2672 7.56187 94.2672 8.27548V13.6057H92.9783V8.36286C92.9783 7.70386 92.8072 7.1905 92.465 6.82277C92.1227 6.4514 91.653 6.26571 91.0559 6.26571C90.6445 6.26571 90.2768 6.35491 89.9527 6.53332C89.6324 6.71172 89.3793 6.97204 89.1936 7.31429C89.0079 7.65653 88.9151 8.07159 88.9151 8.55947Z" fill="url(#paint8_linear_48_74)"/>
<path d="M81.429 13.8026C80.8974 13.8026 80.415 13.7024 79.9817 13.5022C79.5485 13.2983 79.2044 13.0052 78.9495 12.6229C78.6947 12.237 78.5673 11.7709 78.5673 11.2248C78.5673 10.7442 78.6619 10.3546 78.8513 10.0561C79.0406 9.7539 79.2936 9.51724 79.6104 9.34612C79.9271 9.175 80.2767 9.04756 80.659 8.96382C81.0449 8.87644 81.4326 8.80727 81.8222 8.75629C82.3319 8.69076 82.7452 8.64161 83.0619 8.60884C83.3823 8.57243 83.6153 8.51235 83.761 8.42861C83.9103 8.34487 83.9849 8.19924 83.9849 7.99171V7.94802C83.9849 7.40917 83.8374 6.99047 83.5425 6.69191C83.2513 6.39336 82.8089 6.24408 82.2154 6.24408C81.6001 6.24408 81.1177 6.3788 80.7682 6.64822C80.4187 6.91765 80.1729 7.20528 80.0309 7.51111L78.8076 7.0742C79.026 6.56448 79.3173 6.16762 79.6814 5.88364C80.0491 5.59601 80.4496 5.39576 80.8829 5.28289C81.3198 5.16638 81.7494 5.10813 82.1717 5.10813C82.4412 5.10813 82.7506 5.1409 83.1002 5.20643C83.4533 5.26833 83.7937 5.39758 84.1214 5.59419C84.4527 5.79079 84.7276 6.08753 84.9461 6.48438C85.1645 6.88124 85.2738 7.41281 85.2738 8.07909V13.606H83.9849V12.47H83.9194C83.832 12.652 83.6863 12.8468 83.4825 13.0544C83.2786 13.2619 83.0073 13.4385 82.6687 13.5841C82.3301 13.7297 81.9169 13.8026 81.429 13.8026ZM81.6256 12.6448C82.1353 12.6448 82.5649 12.5446 82.9145 12.3444C83.2676 12.1441 83.5334 11.8856 83.7118 11.5689C83.8939 11.2521 83.9849 10.919 83.9849 10.5695V9.38981C83.9303 9.45534 83.8101 9.51542 83.6244 9.57003C83.4424 9.621 83.2312 9.66651 82.9909 9.70656C82.7543 9.74297 82.5231 9.77574 82.2973 9.80487C82.0753 9.83035 81.895 9.8522 81.7567 9.8704C81.4217 9.91409 81.1086 9.98509 80.8173 10.0834C80.5297 10.1781 80.2967 10.3219 80.1183 10.5148C79.9435 10.7042 79.8561 10.9627 79.8561 11.2904C79.8561 11.7382 80.0218 12.0768 80.3531 12.3062C80.6881 12.5319 81.1122 12.6448 81.6256 12.6448ZM82.8271 4.0814H81.7567V2.90175C82.139 2.87991 82.4084 2.82711 82.565 2.74337C82.7251 2.65963 82.8052 2.53038 82.8052 2.35562C82.8052 2.15901 82.6906 2.0152 82.4612 1.92417C82.2318 1.83315 81.9533 1.78764 81.6256 1.78764L81.6693 0.95752C82.423 0.95752 82.9928 1.08859 83.3787 1.35074C83.7683 1.61288 83.963 1.9624 83.963 2.39931C83.963 2.77068 83.8447 3.04193 83.6081 3.21305C83.3714 3.38417 83.1111 3.49157 82.8271 3.53527V4.0814Z" fill="url(#paint9_linear_48_74)"/>
<path d="M76.8674 7.09583L75.7096 7.42351C75.6367 7.23055 75.5293 7.04304 75.3874 6.861C75.249 6.67531 75.0597 6.52239 74.8194 6.40224C74.5791 6.2821 74.2714 6.22202 73.8964 6.22202C73.383 6.22202 72.9552 6.34035 72.613 6.57701C72.2744 6.81002 72.1051 7.10676 72.1051 7.4672C72.1051 7.7876 72.2216 8.04064 72.4546 8.22633C72.6876 8.41201 73.0517 8.56675 73.5469 8.69054L74.7921 8.99637C75.5421 9.17842 76.101 9.45695 76.4687 9.83196C76.8364 10.2033 77.0203 10.6821 77.0203 11.2683C77.0203 11.7489 76.8819 12.1785 76.6052 12.5572C76.3322 12.9358 75.9499 13.2344 75.4584 13.4528C74.9668 13.6713 74.3952 13.7805 73.7435 13.7805C72.8879 13.7805 72.1797 13.5948 71.619 13.2234C71.0583 12.8521 70.7034 12.3096 70.5541 11.596L71.7774 11.2901C71.8939 11.7416 72.1142 12.0802 72.4382 12.3059C72.7659 12.5317 73.1937 12.6445 73.7216 12.6445C74.3224 12.6445 74.7993 12.5171 75.1525 12.2622C75.5093 12.0037 75.6877 11.6943 75.6877 11.3338C75.6877 11.0426 75.5858 10.7986 75.3819 10.602C75.178 10.4018 74.8649 10.2525 74.4425 10.1542L73.0444 9.8265C72.2762 9.64445 71.7119 9.36228 71.3514 8.97999C70.9946 8.59406 70.8162 8.11164 70.8162 7.53274C70.8162 7.05942 70.9491 6.64072 71.2149 6.27663C71.4843 5.91255 71.8502 5.62674 72.3126 5.4192C72.7787 5.21167 73.3066 5.10791 73.8964 5.10791C74.7265 5.10791 75.3782 5.28995 75.8516 5.65404C76.3285 6.01813 76.6671 6.49873 76.8674 7.09583Z" fill="url(#paint10_linear_48_74)"/>
<path d="M53.2336 13.6057V5.21714H54.4788V6.52785H54.5881C54.7628 6.08003 55.045 5.73232 55.4346 5.48474C55.8241 5.23352 56.292 5.10791 56.8381 5.10791C57.3915 5.10791 57.8521 5.23352 58.2198 5.48474C58.5912 5.73232 58.8807 6.08003 59.0882 6.52785H59.1756C59.3904 6.09459 59.7126 5.75053 60.1422 5.49566C60.5718 5.23716 61.087 5.10791 61.6878 5.10791C62.4378 5.10791 63.0513 5.34275 63.5282 5.81242C64.0052 6.27845 64.2437 7.00481 64.2437 7.99149V13.6057H62.9548V7.99149C62.9548 7.37254 62.7855 6.93017 62.4469 6.66439C62.1083 6.3986 61.7096 6.26571 61.2509 6.26571C60.661 6.26571 60.2041 6.44411 59.8801 6.80092C59.556 7.15409 59.394 7.60192 59.394 8.14441V13.6057H58.0833V7.86042C58.0833 7.38346 57.9286 6.99935 57.6191 6.70808C57.3096 6.41317 56.9109 6.26571 56.4231 6.26571C56.0881 6.26571 55.775 6.35491 55.4837 6.53332C55.1961 6.71172 54.9631 6.9593 54.7847 7.27606C54.6099 7.58917 54.5225 7.95144 54.5225 8.36286V13.6057H53.2336Z" fill="url(#paint11_linear_48_74)"/>
<path d="M47.7997 13.7807C46.9914 13.7807 46.2942 13.6023 45.708 13.2455C45.1255 12.885 44.6758 12.3826 44.3591 11.7382C44.046 11.0901 43.8894 10.3364 43.8894 9.47717C43.8894 8.61792 44.046 7.86061 44.3591 7.20526C44.6758 6.54626 45.1164 6.03289 45.6807 5.66516C46.2487 5.29379 46.9113 5.10811 47.6686 5.10811C48.1055 5.10811 48.537 5.18092 48.963 5.32656C49.389 5.4722 49.7767 5.70885 50.1262 6.03653C50.4758 6.36057 50.7543 6.79019 50.9618 7.32541C51.1694 7.86061 51.2731 8.51962 51.2731 9.30241V9.84854H44.8069V8.73443H49.9624C49.9624 8.26111 49.8677 7.83877 49.6784 7.4674C49.4927 7.09603 49.2269 6.80294 48.8811 6.58813C48.5388 6.37331 48.1347 6.26591 47.6686 6.26591C47.1553 6.26591 46.7111 6.39334 46.3361 6.6482C45.9647 6.89942 45.6789 7.2271 45.4787 7.63124C45.2784 8.03538 45.1783 8.46864 45.1783 8.93104V9.67378C45.1783 10.3073 45.2875 10.8443 45.506 11.2849C45.7281 11.7218 46.0357 12.0549 46.4289 12.2843C46.8221 12.51 47.2791 12.6229 47.7997 12.6229C48.1383 12.6229 48.4442 12.5756 48.7172 12.4809C48.9939 12.3826 49.2324 12.237 49.4327 12.044C49.6329 11.8474 49.7876 11.6034 49.8969 11.3122L51.142 11.6617C51.011 12.084 50.7907 12.4554 50.4812 12.7758C50.1718 13.0926 49.7895 13.3401 49.3343 13.5185C48.8792 13.6933 48.3677 13.7807 47.7997 13.7807ZM44.7851 4.16876L47.0133 2.18084H48.2148L50.443 4.16876H48.8701L47.6249 3.01096L46.3798 4.16876H44.7851ZM49.8532 2.83619L50.9236 0.870117H52.5183L50.9891 2.83619H49.8532Z" fill="url(#paint12_linear_48_74)"/>
<path d="M40.633 13.6061V5.2175H41.9219V13.6061H40.633ZM41.2884 3.8194C41.0371 3.8194 40.8205 3.73384 40.6385 3.56272C40.46 3.3916 40.3708 3.18589 40.3708 2.94559C40.3708 2.70529 40.46 2.49958 40.6385 2.32846C40.8205 2.15734 41.0371 2.07178 41.2884 2.07178C41.5396 2.07178 41.7544 2.15734 41.9328 2.32846C42.1148 2.49958 42.2059 2.70529 42.2059 2.94559C42.2059 3.18589 42.1148 3.3916 41.9328 3.56272C41.7544 3.73384 41.5396 3.8194 41.2884 3.8194Z" fill="url(#paint13_linear_48_74)"/>
<path d="M33.4689 10.5474L33.4471 8.95265H33.7092L37.3793 5.2171H38.974L35.0637 9.1711H34.9544L33.4689 10.5474ZM32.2675 13.6057V2.4209H33.5563V13.6057H32.2675ZM37.5977 13.6057L34.3209 9.45509L35.2384 8.55943L39.2361 13.6057H37.5977Z" fill="url(#paint14_linear_48_74)"/>
<path d="M14.5756 13.6057V5.21714H15.8207V6.52785H15.93C16.1047 6.08003 16.3869 5.73232 16.7765 5.48474C17.1661 5.23352 17.6339 5.10791 18.18 5.10791C18.7335 5.10791 19.194 5.23352 19.5618 5.48474C19.9331 5.73232 20.2226 6.08003 20.4301 6.52785H20.5175C20.7323 6.09459 21.0545 5.75053 21.4841 5.49566C21.9138 5.23716 22.4289 5.10791 23.0297 5.10791C23.7797 5.10791 24.3932 5.34275 24.8702 5.81242C25.3471 6.27845 25.5856 7.00481 25.5856 7.99149V13.6057H24.2967V7.99149C24.2967 7.37254 24.1274 6.93017 23.7888 6.66439C23.4502 6.3986 23.0515 6.26571 22.5928 6.26571C22.003 6.26571 21.546 6.44411 21.222 6.80092C20.898 7.15409 20.7359 7.60192 20.7359 8.14441V13.6057H19.4252V7.86042C19.4252 7.38346 19.2705 6.99935 18.961 6.70808C18.6515 6.41317 18.2529 6.26571 17.765 6.26571C17.43 6.26571 17.1169 6.35491 16.8256 6.53332C16.538 6.71172 16.305 6.9593 16.1266 7.27606C15.9518 7.58917 15.8644 7.95144 15.8644 8.36286V13.6057H14.5756Z" fill="url(#paint15_linear_48_74)"/>
<path d="M10.926 13.606V5.21738H12.2149V13.606H10.926ZM11.0352 4.08142L9.3313 1.54736H10.8386L12.1712 4.08142H11.0352Z" fill="url(#paint16_linear_48_74)"/>
<path d="M0.621826 3.62239V2.4209H9.01042V3.62239H5.49333V13.6057H4.13892V3.62239H0.621826Z" fill="url(#paint17_linear_48_74)"/>
<defs>
<linearGradient id="paint0_linear_48_74" x1="170.01" y1="-3.71593" x2="170.01" y2="19.3527" gradientUnits="userSpaceOnUse">
<stop stop-color="#828282"/>
<stop offset="1" stop-color="#1C1C1C"/>
</linearGradient>
<linearGradient id="paint1_linear_48_74" x1="170.01" y1="-3.71593" x2="170.01" y2="19.3527" gradientUnits="userSpaceOnUse">
<stop stop-color="#828282"/>
<stop offset="1" stop-color="#1C1C1C"/>
</linearGradient>
<linearGradient id="paint2_linear_48_74" x1="170.01" y1="-3.71593" x2="170.01" y2="19.3527" gradientUnits="userSpaceOnUse">
<stop stop-color="#828282"/>
<stop offset="1" stop-color="#1C1C1C"/>
</linearGradient>
<linearGradient id="paint3_linear_48_74" x1="170.01" y1="-3.71593" x2="170.01" y2="19.3527" gradientUnits="userSpaceOnUse">
<stop stop-color="#828282"/>
<stop offset="1" stop-color="#1C1C1C"/>
</linearGradient>
<linearGradient id="paint4_linear_48_74" x1="170.01" y1="-3.71595" x2="170.01" y2="19.3527" gradientUnits="userSpaceOnUse">
<stop stop-color="#828282"/>
<stop offset="1" stop-color="#1C1C1C"/>
</linearGradient>
<linearGradient id="paint5_linear_48_74" x1="170.01" y1="-3.71581" x2="170.01" y2="19.3528" gradientUnits="userSpaceOnUse">
<stop stop-color="#828282"/>
<stop offset="1" stop-color="#1C1C1C"/>
</linearGradient>
<linearGradient id="paint6_linear_48_74" x1="170.01" y1="-3.71598" x2="170.01" y2="19.3527" gradientUnits="userSpaceOnUse">
<stop stop-color="#828282"/>
<stop offset="1" stop-color="#1C1C1C"/>
</linearGradient>
<linearGradient id="paint7_linear_48_74" x1="170.01" y1="-3.71595" x2="170.01" y2="19.3527" gradientUnits="userSpaceOnUse">
<stop stop-color="#828282"/>
<stop offset="1" stop-color="#1C1C1C"/>
</linearGradient>
<linearGradient id="paint8_linear_48_74" x1="170.01" y1="-3.71595" x2="170.01" y2="19.3527" gradientUnits="userSpaceOnUse">
<stop stop-color="#828282"/>
<stop offset="1" stop-color="#1C1C1C"/>
</linearGradient>
<linearGradient id="paint9_linear_48_74" x1="170.01" y1="-3.71573" x2="170.01" y2="19.3529" gradientUnits="userSpaceOnUse">
<stop stop-color="#828282"/>
<stop offset="1" stop-color="#1C1C1C"/>
</linearGradient>
<linearGradient id="paint10_linear_48_74" x1="170.01" y1="-3.71595" x2="170.01" y2="19.3527" gradientUnits="userSpaceOnUse">
<stop stop-color="#828282"/>
<stop offset="1" stop-color="#1C1C1C"/>
</linearGradient>
<linearGradient id="paint11_linear_48_74" x1="170.01" y1="-3.71595" x2="170.01" y2="19.3527" gradientUnits="userSpaceOnUse">
<stop stop-color="#828282"/>
<stop offset="1" stop-color="#1C1C1C"/>
</linearGradient>
<linearGradient id="paint12_linear_48_74" x1="170.011" y1="-3.71575" x2="170.011" y2="19.3529" gradientUnits="userSpaceOnUse">
<stop stop-color="#828282"/>
<stop offset="1" stop-color="#1C1C1C"/>
</linearGradient>
<linearGradient id="paint13_linear_48_74" x1="170.01" y1="-3.71558" x2="170.01" y2="19.3531" gradientUnits="userSpaceOnUse">
<stop stop-color="#828282"/>
<stop offset="1" stop-color="#1C1C1C"/>
</linearGradient>
<linearGradient id="paint14_linear_48_74" x1="170.01" y1="-3.71598" x2="170.01" y2="19.3527" gradientUnits="userSpaceOnUse">
<stop stop-color="#828282"/>
<stop offset="1" stop-color="#1C1C1C"/>
</linearGradient>
<linearGradient id="paint15_linear_48_74" x1="170.01" y1="-3.71595" x2="170.01" y2="19.3527" gradientUnits="userSpaceOnUse">
<stop stop-color="#828282"/>
<stop offset="1" stop-color="#1C1C1C"/>
</linearGradient>
<linearGradient id="paint16_linear_48_74" x1="170.01" y1="-3.71571" x2="170.01" y2="19.3529" gradientUnits="userSpaceOnUse">
<stop stop-color="#828282"/>
<stop offset="1" stop-color="#1C1C1C"/>
</linearGradient>
<linearGradient id="paint17_linear_48_74" x1="170.01" y1="-3.71598" x2="170.01" y2="19.3527" gradientUnits="userSpaceOnUse">
<stop stop-color="#828282"/>
<stop offset="1" stop-color="#1C1C1C"/>
</linearGradient>
</defs>
</svg>
