<svg width="58" height="17" viewBox="0 0 58 17" fill="none" xmlns="http://www.w3.org/2000/svg">
<path d="M46.5035 15.9763V0.597168H51.9853C53.1818 0.597168 54.1731 0.814938 54.959 1.25048C55.745 1.68602 56.3332 2.28176 56.7237 3.0377C57.1142 3.78863 57.3095 4.63468 57.3095 5.57585C57.3095 6.52202 57.1117 7.37308 56.7162 8.12902C56.3257 8.87995 55.735 9.47569 54.944 9.91624C54.158 10.3518 53.1693 10.5695 51.9778 10.5695H48.2082V8.60211H51.7676C52.5235 8.60211 53.1368 8.47195 53.6074 8.21162C54.0779 7.94629 54.4234 7.58585 54.6436 7.13028C54.8639 6.67471 54.9741 6.15657 54.9741 5.57585C54.9741 4.99513 54.8639 4.47949 54.6436 4.02893C54.4234 3.57837 54.0754 3.22543 53.5999 2.97011C53.1293 2.7148 52.5085 2.58714 51.7375 2.58714H48.8239V15.9763H46.5035Z" fill="url(#paint0_linear_48_38)"/>
<path d="M43.6106 8.28653C43.6106 9.92857 43.3102 11.3403 42.7094 12.5218C42.1087 13.6982 41.2852 14.6044 40.2389 15.2402C39.1976 15.8709 38.0136 16.1863 36.687 16.1863C35.3553 16.1863 34.1663 15.8709 33.12 15.2402C32.0787 14.6044 31.2577 13.6957 30.657 12.5143C30.0562 11.3328 29.7559 9.92356 29.7559 8.28653C29.7559 6.64449 30.0562 5.23524 30.657 4.05878C31.2577 2.87731 32.0787 1.97119 33.12 1.3404C34.1663 0.704614 35.3553 0.386719 36.687 0.386719C38.0136 0.386719 39.1976 0.704614 40.2389 1.3404C41.2852 1.97119 42.1087 2.87731 42.7094 4.05878C43.3102 5.23524 43.6106 6.64449 43.6106 8.28653ZM41.3127 8.28653C41.3127 7.03497 41.11 5.98117 40.7045 5.1251C40.304 4.26403 39.7533 3.61323 39.0524 3.17268C38.3565 2.72713 37.5681 2.50435 36.687 2.50435C35.8009 2.50435 35.0099 2.72713 34.314 3.17268C33.6182 3.61323 33.0675 4.26403 32.662 5.1251C32.2615 5.98117 32.0612 7.03497 32.0612 8.28653C32.0612 9.53808 32.2615 10.5944 32.662 11.4555C33.0675 12.3115 33.6182 12.9623 34.314 13.4079C35.0099 13.8484 35.8009 14.0687 36.687 14.0687C37.5681 14.0687 38.3565 13.8484 39.0524 13.4079C39.7533 12.9623 40.304 12.3115 40.7045 11.4555C41.11 10.5944 41.3127 9.53808 41.3127 8.28653Z" fill="url(#paint1_linear_48_38)"/>
<path d="M14.557 15.9763V0.597168H16.8774V7.28047H24.5444V0.597168H26.8723V15.9763H24.5444V9.27044H16.8774V15.9763H14.557Z" fill="url(#paint2_linear_48_38)"/>
<path d="M9.33613 4.637C9.25604 3.92611 8.92562 3.37543 8.3449 2.98494C7.76418 2.58945 7.03328 2.39171 6.15218 2.39171C5.5214 2.39171 4.97572 2.49183 4.51515 2.69208C4.05458 2.88732 3.69663 3.15766 3.44132 3.50309C3.19101 3.84351 3.06585 4.23149 3.06585 4.66703C3.06585 5.03249 3.15096 5.34788 3.32117 5.61321C3.49638 5.87854 3.72417 6.10131 4.00452 6.28154C4.28987 6.45676 4.59525 6.60444 4.92065 6.72459C5.24606 6.83973 5.55895 6.93485 5.85932 7.00994L7.36118 7.40043C7.85179 7.52058 8.35492 7.68328 8.87056 7.88853C9.3862 8.09379 9.86429 8.36412 10.3048 8.69954C10.7454 9.03496 11.1008 9.45047 11.3712 9.94609C11.6465 10.4417 11.7842 11.0349 11.7842 11.7258C11.7842 12.5969 11.5589 13.3703 11.1083 14.0462C10.6628 14.722 10.0145 15.2552 9.16342 15.6457C8.31737 16.0361 7.2936 16.2314 6.09211 16.2314C4.94068 16.2314 3.94444 16.0487 3.1034 15.6832C2.26235 15.3178 1.60404 14.7996 1.12844 14.1288C0.652854 13.4529 0.390028 12.6519 0.339966 11.7258H2.66786C2.71291 12.2815 2.89314 12.7446 3.20853 13.115C3.52893 13.4805 3.93693 13.7533 4.43255 13.9335C4.93317 14.1088 5.48135 14.1964 6.07709 14.1964C6.7329 14.1964 7.31613 14.0937 7.82676 13.8885C8.3424 13.6782 8.7479 13.3879 9.04327 13.0174C9.33864 12.6419 9.48632 12.2039 9.48632 11.7033C9.48632 11.2477 9.35616 10.8747 9.09584 10.5844C8.84052 10.294 8.49259 10.0537 8.05204 9.86349C7.6165 9.67325 7.12339 9.50554 6.5727 9.36036L4.75545 8.86475C3.52392 8.52933 2.54771 8.03622 1.82681 7.38541C1.11092 6.7346 0.752979 5.87353 0.752979 4.8022C0.752979 3.9161 0.993277 3.14264 1.47387 2.48182C1.95447 1.821 2.60528 1.30786 3.4263 0.94241C4.24732 0.571949 5.17347 0.386719 6.20475 0.386719C7.24604 0.386719 8.16468 0.569446 8.96067 0.934899C9.76166 1.30035 10.3924 1.80348 10.853 2.44427C11.3136 3.08006 11.5539 3.81097 11.5739 4.637H9.33613Z" fill="url(#paint3_linear_48_38)"/>
<defs>
<linearGradient id="paint0_linear_48_38" x1="34.3422" y1="-7.84105" x2="34.3422" y2="32.5291" gradientUnits="userSpaceOnUse">
<stop stop-color="#828282"/>
<stop offset="1" stop-color="#1C1C1C"/>
</linearGradient>
<linearGradient id="paint1_linear_48_38" x1="34.3422" y1="-7.84123" x2="34.3422" y2="32.5289" gradientUnits="userSpaceOnUse">
<stop stop-color="#828282"/>
<stop offset="1" stop-color="#1C1C1C"/>
</linearGradient>
<linearGradient id="paint2_linear_48_38" x1="34.3422" y1="-7.84105" x2="34.3422" y2="32.5291" gradientUnits="userSpaceOnUse">
<stop stop-color="#828282"/>
<stop offset="1" stop-color="#1C1C1C"/>
</linearGradient>
<linearGradient id="paint3_linear_48_38" x1="34.3422" y1="-7.84123" x2="34.3422" y2="32.5289" gradientUnits="userSpaceOnUse">
<stop stop-color="#828282"/>
<stop offset="1" stop-color="#1C1C1C"/>
</linearGradient>
</defs>
</svg>
