<svg width="30" height="33" viewBox="0 0 30 33" fill="none" xmlns="http://www.w3.org/2000/svg">
<path d="M17.1948 13.0724C18.7244 13.0724 20.1913 12.4648 21.2728 11.3832C22.3544 10.3017 22.962 8.83479 22.962 7.30525C22.962 5.7757 22.3544 4.3088 21.2728 3.22725C20.1913 2.1457 18.7244 1.53809 17.1948 1.53809C15.6653 1.53809 14.1984 2.1457 13.1168 3.22725C12.0353 4.3088 11.4277 5.7757 11.4277 7.30525C11.4277 8.83479 12.0353 10.3017 13.1168 11.3832C14.1984 12.4648 15.6653 13.0724 17.1948 13.0724ZM15.1358 15.2351C10.6978 15.2351 7.10229 18.8306 7.10229 23.2686C7.10229 24.0075 7.70154 24.6067 8.44046 24.6067H25.9492C26.6881 24.6067 27.2874 24.0075 27.2874 23.2686C27.2874 18.8306 23.6919 15.2351 19.2539 15.2351H15.1358Z" fill="black"/>
<path d="M17.1948 13.0724C18.7244 13.0724 20.1913 12.4648 21.2728 11.3832C22.3544 10.3017 22.962 8.83479 22.962 7.30525C22.962 5.7757 22.3544 4.3088 21.2728 3.22725C20.1913 2.1457 18.7244 1.53809 17.1948 1.53809C15.6653 1.53809 14.1984 2.1457 13.1168 3.22725C12.0353 4.3088 11.4277 5.7757 11.4277 7.30525C11.4277 8.83479 12.0353 10.3017 13.1168 11.3832C14.1984 12.4648 15.6653 13.0724 17.1948 13.0724ZM15.1358 15.2351C10.6978 15.2351 7.10229 18.8306 7.10229 23.2686C7.10229 24.0075 7.70154 24.6067 8.44046 24.6067H25.9492C26.6881 24.6067 27.2874 24.0075 27.2874 23.2686C27.2874 18.8306 23.6919 15.2351 19.2539 15.2351H15.1358Z" fill="black" fill-opacity="0.2"/>
<path d="M17.1948 13.0724C18.7244 13.0724 20.1913 12.4648 21.2728 11.3832C22.3544 10.3017 22.962 8.83479 22.962 7.30525C22.962 5.7757 22.3544 4.3088 21.2728 3.22725C20.1913 2.1457 18.7244 1.53809 17.1948 1.53809C15.6653 1.53809 14.1984 2.1457 13.1168 3.22725C12.0353 4.3088 11.4277 5.7757 11.4277 7.30525C11.4277 8.83479 12.0353 10.3017 13.1168 11.3832C14.1984 12.4648 15.6653 13.0724 17.1948 13.0724ZM15.1358 15.2351C10.6978 15.2351 7.10229 18.8306 7.10229 23.2686C7.10229 24.0075 7.70154 24.6067 8.44046 24.6067H25.9492C26.6881 24.6067 27.2874 24.0075 27.2874 23.2686C27.2874 18.8306 23.6919 15.2351 19.2539 15.2351H15.1358Z" fill="black" fill-opacity="0.2"/>
</svg>
